<svg xmlns="http://www.w3.org/2000/svg" viewBox="0 0 145.86 145.13"><path d="M45.87,51H99.46v1q0,17,0,34a27.15,27.15,0,0,1-.39,5.69c-1.07,4.87-4.15,8.36-8.3,10.95-1.27.8-2.64,1.45-4,2.13l-13.35,6.69a1.35,1.35,0,0,1-1.36.08c-5.28-2.66-10.61-5.24-15.87-8a18.61,18.61,0,0,1-9.44-10.18,14.73,14.73,0,0,1-.93-5.22q0-18.18,0-36.36ZM95.73,89.79a8.07,8.07,0,0,0-.87-.78L73.36,75A1.09,1.09,0,0,0,72,75q-10,6.57-20.08,13.09c-2.38,1.55-2.38,1.55-1.27,4.21a16.58,16.58,0,0,0,8.31,8.45c4.36,2.21,8.76,4.36,13.13,6.56a1.24,1.24,0,0,0,1.26,0c4.32-2.18,8.66-4.32,13-6.49a17,17,0,0,0,7.37-6.46A47,47,0,0,0,95.73,89.79ZM49.66,84.26l1.16-.73L72,69.73a1,1,0,0,1,1.35,0q9,5.9,18,11.73l4.21,2.72a1.63,1.63,0,0,0,.11-.31c0-3,0-6,0-9a1,1,0,0,0-.43-.68q-11-7.56-22.07-15.09a.74.74,0,0,0-1,0c-.93.68-1.9,1.31-2.86,2q-9.51,6.48-19,13c-.26.18-.6.5-.6.76,0,3.07,0,6.13,0,9.41Zm46-15v-14H75.12Zm-45.9,0,20.47-14H49.72Z" fill="#ffcd00"/><path d="M84.59,21l-3-.73C81.43,13.49,81.3,6.8,81.18,0L85,.91V16l.22.05L92.69,2.75l3,.73c.19,5.12.38,10.16.56,15.2l.19.05,7.15-13.34,1.74.39L95.8,23.65c-.91-.21-1.9-.42-2.88-.69a.76.76,0,0,1-.32-.59q-.21-7.14-.38-14.29A.63.63,0,0,0,92,7.63Z" fill="#fff"/><path d="M12.51,46.78a4.77,4.77,0,0,1,6.3-1.22,5.12,5.12,0,0,1,2.53,6.25,9.15,9.15,0,0,1-.57,1.42c-1.06,2.15-2.13,4.28-3.2,6.44L0,51c.55-1.12,1.09-2.25,1.66-3.37a38.57,38.57,0,0,1,2.26-4.26,4.64,4.64,0,0,1,6.36-1.61,5,5,0,0,1,.85.66,3.72,3.72,0,0,1,1.38,2.73C12.54,45.63,12.51,46.17,12.51,46.78Zm5.2,8.77c.31-.63.56-1.2.86-1.73,1.5-2.69.15-4.12-1.94-5a5.29,5.29,0,0,0-.76-.27,2.9,2.9,0,0,0-3.34.94,28.57,28.57,0,0,0-1.69,2.67ZM3.1,48.3l6.41,3.18c.75-1.62,1.94-3.15.83-4.93a4.12,4.12,0,0,0-4-2C4.25,44.79,4,46.83,3.1,48.3Z" fill="#fff"/><path d="M119.59,126.58a7.41,7.41,0,0,1-1.86,5.06,12.44,12.44,0,0,1-7.24,4.25,7.33,7.33,0,0,1-6.28-1.6,12.79,12.79,0,0,1-4.64-8,7.09,7.09,0,0,1,1.47-5.78,12.42,12.42,0,0,1,7.23-4.54,7.15,7.15,0,0,1,6.2,1.3A12.64,12.64,0,0,1,119.59,126.58Zm-16.9-3.24c0,2.92,2.64,7.64,5.27,9.46a4.79,4.79,0,0,0,5.39.3c2-1.1,3.27-2.7,3-5a13.15,13.15,0,0,0-5.66-9.3,4.47,4.47,0,0,0-5.11,0,5,5,0,0,0-2.87,4.53Z" fill="#fff"/><path d="M83.11,125.36c4.71.11,7.76,2.6,8.72,7.44a16.46,16.46,0,0,1,.29,4.8,7.6,7.6,0,0,1-5.28,6.63,12.85,12.85,0,0,1-6.75.74A7.69,7.69,0,0,1,74,140.05a13.36,13.36,0,0,1-.92-7.44c.63-3.78,3.09-5.84,6.65-6.72C80.81,125.62,82,125.54,83.11,125.36Zm5.4,11.53A17.07,17.07,0,0,0,87,130.07a4.92,4.92,0,0,0-5.2-2.91c-2.64.32-4.37,1.69-4.84,4.14a13.94,13.94,0,0,0,1.39,9.48,5.35,5.35,0,0,0,7.29,2,5.47,5.47,0,0,0,1.21-.94c1.36-1.37,1.59-3.12,1.7-5Z" fill="#fff"/><path d="M51.37,133.17,49.14,142l-3.53-.9,4.68-18.43,3.52.89-2.07,8.13,7.7,2,2.07-8.13,3.52.88L60.36,144.8l-3.5-.87,2.24-8.8Z" fill="#fff"/><path d="M70.44.52,65.18,9.71l9.65,10c-1.43.2-2.77.42-4.12.57-.22,0-.51-.21-.69-.4-2.31-2.42-4.61-4.83-6.9-7.26a1.34,1.34,0,0,0-.31-.17l1.29,8.81-3.71.54L57.57,2.4l3.7-.55,1.24,8.53c.2-.29.34-.45.44-.62q2.39-4.26,4.78-8.52a.75.75,0,0,1,.44-.36C68.88.74,69.6.65,70.44.52Z" fill="#fff"/><path d="M26.82,43.14l-1.3,1.24L16.75,25.6,19,23.41,37.71,32l-2.92,2.89c-1.45-.68-3.13-1.44-4.78-2.26a1,1,0,0,0-1.32.24c-1.34,1.4-2.71,2.76-4.1,4.11a.76.76,0,0,0-.18,1C25.22,39.69,26,41.4,26.82,43.14Zm.73-11.69-8-3.74,3.77,7.93Z" fill="#fff"/><path d="M53,20.1a14,14,0,0,0,.77,1.49,1.19,1.19,0,0,1-.08,1.69l-.13.11c-2.87,2.68-6.1,4.41-10.19,3.82a7.45,7.45,0,0,1-4.43-2.47,13,13,0,0,1-3.76-8A8.05,8.05,0,0,1,38,10a14,14,0,0,1,7-3.52c.76-.14,1.28-.08,1.56.75a11,11,0,0,0,.7,1.47,18.3,18.3,0,0,0-3.14,0c-3.81.66-5.8,3.61-5.06,7.43A12,12,0,0,0,42.78,23a6.07,6.07,0,0,0,10-2.31Z" fill="#fff"/><path d="M115.63,11.9l8.67,6-1,1.36-5.53-3.89-4.15,5.92,5.54,3.88-.9,1.3-5.54-3.89-4.25,6.08,5.53,3.87-1,1.48L104.37,28Z" fill="#fff"/><path d="M26.87,107.39l-1.83.78c-.4-1.19-.7-2.36-1.19-3.45a2.91,2.91,0,0,0-2.54-1.87,2.52,2.52,0,0,0-2.79,2.22,2.44,2.44,0,0,0,0,.81c.24,1.46.65,2.89.92,4.34.57,3-.34,5.11-2.68,6.4a5.89,5.89,0,0,1-7-1.08,11,11,0,0,1-3.21-5.68c-.1-.42-.07-.72.41-.88s1.14-.48,1.72-.73c.08.84.1,1.64.25,2.42a5.45,5.45,0,0,0,1.62,3,3.14,3.14,0,0,0,3.58.61A2.83,2.83,0,0,0,15.77,111c-.24-1.51-.63-3-.91-4.51-.61-3.3,1.2-5.87,4.43-6.26a4.71,4.71,0,0,1,1.67.13C23.66,101,26.63,104.53,26.87,107.39Z" fill="#fff"/><path d="M44,120.39l-1.54,2.28A7.27,7.27,0,0,0,40,118.78a5.15,5.15,0,0,0-6.17-.56A11,11,0,0,0,28.24,127c-.31,3.42,3.16,6.45,6.62,5.94l.81-.13c-.5.75-.91,1.39-1.36,2a.66.66,0,0,1-.49.14c-3.47-.19-8-4-8.84-7.36a7.93,7.93,0,0,1,.06-4,13.38,13.38,0,0,1,4-6.58,7.75,7.75,0,0,1,7.52-1.8A12.84,12.84,0,0,1,44,120.39Z" fill="#fff"/><path d="M132.88,26.32l2.36,2.95-14,11.12,4.1,5.17L124,46.67l-6.47-8.12Z" fill="#fff"/><path d="M132,60l-1.65.7-4-9.56,18.1-7.63L145.86,47,129.39,54Z" fill="#fff"/><path d="M133,116.59l2.13-2.39,2.08-2.35,1.31,1.15-6.63,7.47-14.26-12.64L120,105.1Z" fill="#fff"/><path d="M7.89,76.85a4.58,4.58,0,0,1,4.64,4.51v.15a4.64,4.64,0,0,1-4.59,4.68H7.88a4.67,4.67,0,0,1-4.69-4.65v-.08A4.61,4.61,0,0,1,7.8,76.85Z" fill="#fff"/><path d="M132.8,81.53a4.56,4.56,0,0,1,4.42-4.68h.18a4.63,4.63,0,0,1,4.74,4.52v.15a4.67,4.67,0,0,1-9.34.09Z" fill="#fff"/><path d="M64.5,96.05a3.92,3.92,0,0,1-1.77-4.54,4.3,4.3,0,0,1,4.45-2.76,14.35,14.35,0,0,0,1.61.1c1.15,0,1.6-.4,1.61-1.54s-.18-2.26-.17-3.38a8,8,0,0,1,.35-2.44A2.07,2.07,0,0,1,72.74,80a2,2,0,0,1,2,1.57A16.15,16.15,0,0,1,75,84.89c0,.86-.12,1.72-.08,2.58s.45,1.33,1.43,1.36a11.66,11.66,0,0,0,1.77-.08,4.32,4.32,0,0,1,4.46,2.76,3.94,3.94,0,0,1-1.83,4.58c-.32-.61-.67-1.21-1-1.83-.67-1.4-1.53-1.89-2.86-1.58-1.14.27-1.67,1.1-1.63,2.62,0,.37.08.74.13,1.14.56.16,1.26,0,1.5.82s.11,1.26-.71,1.55-1,.5-.75,1.43C76,102,76,102,74.17,102c-1.26,0-2.53,0-3.8,0-.75,0-.88-.33-.75-.94l.06-.24c.36-1.47.34-1.43-.93-2.15a1.31,1.31,0,0,1-.41-1.06c0-.43.14-1,.8-1s.87-.33.83-.94c0-.3,0-.59,0-.89a2,2,0,0,0-1.73-2.09A2.18,2.18,0,0,0,65.66,94c-.26.56-.55,1.11-.84,1.65A3.54,3.54,0,0,1,64.5,96.05Z" fill="#ffcd00"/></svg>